<svg xmlns="http://www.w3.org/2000/svg" width="118" height="128.167" viewBox="0 0 118 128.167">
  <g id="Group_2" data-name="Group 2" transform="translate(-114.258 -104.758)">
    <g id="Group_2-2" data-name="Group 2" transform="translate(114.258 104.758)">
      <path id="Path_1" data-name="Path 1" d="M230.642,112.667c-1.5-.322-37.014-7.909-57.853-7.909s-55.462,7.589-56.926,7.912a2.046,2.046,0,0,0-1.6,2V182.81c0,21.638,21.694,32.167,46.814,44.359,3.677,1.784,3.677,1.784,11.265,5.536a2.056,2.056,0,0,0,.92.219,2.1,2.1,0,0,0,.947-.231c9.153-4.653,9.153-4.653,13.559-6.832,23.875-11.808,44.5-22.005,44.5-43.052V114.669A2.047,2.047,0,0,0,230.642,112.667Zm-2.476,70.143c0,18.5-18.63,27.719-42.217,39.384-4.129,2.043-4.1,2.036-12.707,6.387-6.994-3.449-6.994-3.449-10.383-5.094-23.883-11.59-44.508-21.6-44.508-40.677V116.322c7.154-1.51,36.531-7.472,54.439-7.472,17.933,0,48.093,5.98,55.378,7.481Z" transform="translate(-114.258 -104.758)" fill="#e5e5e5"/>
      <path id="Path_2" data-name="Path 2" d="M143.51,176.066V126.243a.943.943,0,0,0-.943-.941h-2.429a.943.943,0,0,0-.941.941v23.1h-5.068v-23.1a.943.943,0,0,0-.943-.941h-2.429a.943.943,0,0,0-.943.941v49.823a.943.943,0,0,0,.943.943h2.429a.943.943,0,0,0,.943-.943v-23.1H139.2v23.1a.943.943,0,0,0,.941.943h2.429A.943.943,0,0,0,143.51,176.066Z" transform="translate(-109.274 -98.176)" fill="#e5e5e5"/>
      <path id="Path_3" data-name="Path 3" d="M158.687,176.693a.947.947,0,0,0,.232-.735l-5.728-49.821a.942.942,0,0,0-.936-.834h-3.58a.942.942,0,0,0-.936.836l-5.589,49.824a.942.942,0,0,0,.936,1.047h2.148a.94.94,0,0,0,.937-.845l1.441-13.818h5.5l1.507,13.822a.94.94,0,0,0,.936.841h2.427A.945.945,0,0,0,158.687,176.693Zm-10.632-17.966,1.714-15.619c.239-2.156.416-4.363.581-6.524.132,1.227.275,2.447.415,3.655q.166,1.438.329,2.87l1.647,15.617Z" transform="translate(-105.324 -98.176)" fill="#e5e5e5"/>
      <path id="Path_4" data-name="Path 4" d="M153.365,126.243v1.736a.943.943,0,0,0,.941.941H158.3v47.145a.943.943,0,0,0,.943.943h2.429a.943.943,0,0,0,.943-.943V128.921H166.6a.943.943,0,0,0,.941-.941v-1.736a.943.943,0,0,0-.941-.941h-12.3A.943.943,0,0,0,153.365,126.243Z" transform="translate(-101.729 -98.176)" fill="#e5e5e5"/>
      <path id="Path_5" data-name="Path 5" d="M171.938,177.354c4.065,0,6.4-2.255,6.4-6.187v-11.43a.943.943,0,0,0-.941-.941h-2.431a.943.943,0,0,0-.941.941v11.013c0,2.49-.584,2.933-1.892,2.981l-.09,0a2.506,2.506,0,0,1-2.46-2.546V131.352a2.507,2.507,0,0,1,2.411-2.642,2.6,2.6,0,0,1,.49.049c.38.077,1.541.306,1.541,2.936v11.012a.943.943,0,0,0,.941.943h2.431a.943.943,0,0,0,.941-.943V131.278c0-3.932-2.33-6.187-6.4-6.187-4.179,0-6.674,2.313-6.674,6.187v39.888C165.264,175.041,167.759,177.354,171.938,177.354Z" transform="translate(-97.917 -98.244)" fill="#e5e5e5"/>
      <path id="Path_6" data-name="Path 6" d="M178.639,177.009h2.431a.943.943,0,0,0,.941-.943v-23.1h5.068v23.1a.943.943,0,0,0,.941.943h2.431a.943.943,0,0,0,.941-.943V126.243a.943.943,0,0,0-.941-.941h-2.431a.943.943,0,0,0-.941.941v23.1h-5.068v-23.1a.943.943,0,0,0-.941-.941h-2.431a.943.943,0,0,0-.941.941v49.823A.943.943,0,0,0,178.639,177.009Z" transform="translate(-93.934 -98.176)" fill="#e5e5e5"/>
    </g>
    <g id="Group_3" data-name="Group 3" transform="translate(146.346 188.417)">
      <path id="Path_7" data-name="Path 7" d="M143.191,168.2h-4.473a.157.157,0,0,0-.157.157v1.105a.157.157,0,0,0,.157.157l1.421.022v8.218a.157.157,0,0,0,.157.156h1.316a.156.156,0,0,0,.157-.156l.022-8.24h1.4a.157.157,0,0,0,.157-.157v-1.105A.157.157,0,0,0,143.191,168.2Z" transform="translate(-138.56 -168.091)" fill="#e5e5e5"/>
      <path id="Path_8" data-name="Path 8" d="M147.567,168.2h-1.316a.156.156,0,0,0-.156.157l-.024,4.039-1.413-.022v-4.017a.157.157,0,0,0-.157-.157h-1.316a.157.157,0,0,0-.157.157v9.5a.156.156,0,0,0,.157.156H144.5a.157.157,0,0,0,.157-.156l.022-4.044,1.414.022v4.022a.156.156,0,0,0,.156.156h1.316a.157.157,0,0,0,.157-.156v-9.5A.157.157,0,0,0,147.567,168.2Z" transform="translate(-137.129 -168.091)" fill="#e5e5e5"/>
      <path id="Path_9" data-name="Path 9" d="M151.317,168.2h-3.4a.338.338,0,0,0-.337.337v9.144a.338.338,0,0,0,.337.337h3.4a.158.158,0,0,0,.157-.157V176.75a.156.156,0,0,0-.157-.156l-2.106-.024.022-2.758h1.951a.158.158,0,0,0,.157-.157V172.55a.157.157,0,0,0-.157-.157l-1.974-.022.022-2.754h2.084a.157.157,0,0,0,.157-.157v-1.105A.157.157,0,0,0,151.317,168.2Z" transform="translate(-135.67 -168.093)" fill="#e5e5e5"/>
      <path id="Path_10" data-name="Path 10" d="M156.869,168.2h-1.235a.339.339,0,0,0-.329.264l-2.061,9.361a.158.158,0,0,0,.03.132.156.156,0,0,0,.121.058h1.316a.157.157,0,0,0,.154-.129l.429-2.292,1.776.018.408,2.275a.156.156,0,0,0,.154.128h1.316a.155.155,0,0,0,.153-.187L157.2,168.47A.338.338,0,0,0,156.869,168.2Zm-1.31,5.975-.022-.026.647-3.568.618,3.594Z" transform="translate(-133.857 -168.091)" fill="#e5e5e5"/>
      <path id="Path_11" data-name="Path 11" d="M166.574,168.2h-3.4a.337.337,0,0,0-.335.337v9.144a.336.336,0,0,0,.335.335h3.4a.156.156,0,0,0,.156-.156v-1.106a.156.156,0,0,0-.156-.156l-2.107-.024.022-2.758h1.954a.157.157,0,0,0,.156-.157v-1.105a.156.156,0,0,0-.156-.157l-1.977-.022.022-2.754h2.085a.156.156,0,0,0,.156-.157v-1.105A.156.156,0,0,0,166.574,168.2Z" transform="translate(-130.782 -168.091)" fill="#e5e5e5"/>
      <path id="Path_12" data-name="Path 12" d="M171.505,168.2h-1.237a.157.157,0,0,0-.157.157v6.421l-1.24-6.306a.339.339,0,0,0-.33-.272h-1.489a.338.338,0,0,0-.337.337v9.323a.157.157,0,0,0,.157.156h1.158a.156.156,0,0,0,.157-.156v-6.593l1.241,6.476a.337.337,0,0,0,.33.272h1.567a.336.336,0,0,0,.335-.335v-9.323A.156.156,0,0,0,171.505,168.2Z" transform="translate(-129.54 -168.091)" fill="#e5e5e5"/>
      <path id="Path_13" data-name="Path 13" d="M175.367,168.266a.155.155,0,0,0-.022.141l1.809,5.586v3.867a.156.156,0,0,0,.157.156h1.316a.157.157,0,0,0,.157-.156v-3.875l1.819-5.579a.155.155,0,0,0-.021-.141.157.157,0,0,0-.127-.065H179.3a.156.156,0,0,0-.148.108l-1.171,3.56-1.017-3.554a.158.158,0,0,0-.152-.114h-1.315A.155.155,0,0,0,175.367,168.266Z" transform="translate(-126.778 -168.091)" fill="#e5e5e5"/>
      <path id="Path_14" data-name="Path 14" d="M173.82,168.141c-1.579,0-2.381.9-2.381,2.658v4.8c0,1.715.749,2.513,2.356,2.513,1.408,0,2.091-.629,2.091-1.92V174.37a.156.156,0,0,0-.157-.156h-1.237a.156.156,0,0,0-.157.156v1.43c0,.647-.218.974-.646.974-.232,0-.621,0-.621-1.159v-4.658c0-1.272.2-1.476.66-1.476.283,0,.606.1.606.831v1.574a.157.157,0,0,0,.157.157h1.237a.157.157,0,0,0,.157-.157v-1.863C175.886,168.809,175.152,168.141,173.82,168.141Z" transform="translate(-128.027 -168.111)" fill="#e5e5e5"/>
      <path id="Path_15" data-name="Path 15" d="M160.675,168.118c-1.723,0-2.394.745-2.394,2.658v4.71c0,1.913.671,2.658,2.394,2.658,1.549,0,2.3-.615,2.3-1.882V173.1a.337.337,0,0,0-.337-.337h-1.855a.157.157,0,0,0-.157.156v1.106a.158.158,0,0,0,.157.157h.561v1.7c0,.578-.256.923-.685.923-.5,0-.751-.474-.751-1.41v-4.526c0-.935.254-1.409.751-1.409.429,0,.685.345.685.922v.8a.158.158,0,0,0,.157.157h1.316a.158.158,0,0,0,.157-.157V170C162.978,168.733,162.224,168.118,160.675,168.118Z" transform="translate(-132.242 -168.118)" fill="#e5e5e5"/>
    </g>
  </g>
</svg>
